
<svg width="12" height="14" viewBox="0 0 12 14" fill="none" xmlns="http://www.w3.org/2000/svg">
<path d="M10.6666 1.75001H10.0833V0.583344H8.91663V1.75001H3.08329V0.583344H1.91663V1.75001H1.33329C0.691626 1.75001 0.166626 2.27501 0.166626 2.91668V12.25C0.166626 12.8917 0.691626 13.4167 1.33329 13.4167H10.6666C11.3083 13.4167 11.8333 12.8917 11.8333 12.25V2.91668C11.8333 2.27501 11.3083 1.75001 10.6666 1.75001ZM10.6666 12.25H1.33329V4.66668H10.6666V12.25Z" fill="#1C4980"/>
<path fill-rule="evenodd" clip-rule="evenodd" d="M2.49996 7.00001C2.49996 6.67784 2.76113 6.41668 3.08329 6.41668H4.83329C5.15546 6.41668 5.41663 6.67784 5.41663 7.00001C5.41663 7.32218 5.15546 7.58334 4.83329 7.58334H3.08329C2.76113 7.58334 2.49996 7.32218 2.49996 7.00001ZM6.58329 7.00001C6.58329 6.67784 6.84446 6.41668 7.16663 6.41668H8.91663C9.23879 6.41668 9.49996 6.67784 9.49996 7.00001C9.49996 7.32218 9.23879 7.58334 8.91663 7.58334H7.16663C6.84446 7.58334 6.58329 7.32218 6.58329 7.00001ZM2.49996 9.33334C2.49996 9.01118 2.76113 8.75001 3.08329 8.75001H4.83329C5.15546 8.75001 5.41663 9.01118 5.41663 9.33334C5.41663 9.65551 5.15546 9.91668 4.83329 9.91668H3.08329C2.76113 9.91668 2.49996 9.65551 2.49996 9.33334ZM6.58329 9.33334C6.58329 9.01118 6.84446 8.75001 7.16663 8.75001H8.91663C9.23879 8.75001 9.49996 9.01118 9.49996 9.33334C9.49996 9.65551 9.23879 9.91668 8.91663 9.91668H7.16663C6.84446 9.91668 6.58329 9.65551 6.58329 9.33334Z" fill="#1C4980"/>
</svg>
